<svg width="215" height="200" viewBox="0 0 215 200" fill="none" xmlns="http://www.w3.org/2000/svg">
    <line x1="73.2256" y1="159.93" x2="107.598" y2="159.93" stroke="#D71921" stroke-width="2.5"/>
    <line x1="75.0835" y1="156.103" x2="106.669" y2="156.103" stroke="#D71921" stroke-width="2.5"/>
    <path d="M71.4392 166.491L90.4116 76.9917L109.384 166.491H71.4392Z" stroke="#E7EAE9" stroke-width="2.5" stroke-linecap="round" stroke-linejoin="round"/>
    <mask id="path-4-inside-1_2_478" fill="white">
        <path fill-rule="evenodd" clip-rule="evenodd" d="M64.2022 105.719C64.1214 105.817 64.0132 105.907 63.884 105.985L17.8608 133.635C16.8148 134.263 15.4413 133.693 16.0956 132.902L44.8838 98.1005C44.9646 98.0028 45.0728 97.9125 45.202 97.8349L59.94 88.9807C60.2093 88.8189 60.3811 88.6058 60.4134 88.3933L62.1277 77.1292C62.1776 76.801 62.5556 76.4855 63.064 76.3476L86.7772 69.9144C87.5482 69.7052 88.2618 70.0013 88.1861 70.499V70.499C88.0891 71.1362 89.2347 71.3812 90.0424 70.896L91.2252 70.1854C92.2712 69.5569 93.6447 70.1269 92.9904 70.9179L87.1551 77.9721C87.0692 78.0759 87.0163 78.1857 86.9998 78.294L85.8565 85.8058C85.8066 86.134 85.4286 86.4495 84.9202 86.5874L79.1296 88.1584C78.8004 88.2477 78.517 88.4145 78.3485 88.6182L64.2022 105.719Z"/>
    </mask>
    <path d="M79.1296 88.1584L78.4779 86.4253L79.1296 88.1584ZM78.3485 88.6182L80.9527 89.2019L78.3485 88.6182ZM85.8565 85.8058L82.8641 86.0268L85.8565 85.8058ZM84.9202 86.5874L85.5719 88.3206L84.9202 86.5874ZM87.1551 77.9721L89.7593 78.5558L87.1551 77.9721ZM86.9998 78.294L84.0073 78.5149L86.9998 78.294ZM91.2252 70.1854L93.0341 71.433L91.2252 70.1854ZM92.9904 70.9179L90.3862 70.3342L90.3862 70.3342L92.9904 70.9179ZM90.0424 70.896L88.2335 69.6484L90.0424 70.896ZM86.7772 69.9144L86.1255 68.1813L86.7772 69.9144ZM62.1277 77.1292L59.1352 77.3501L62.1277 77.1292ZM63.064 76.3476L62.4123 74.6144L63.064 76.3476ZM60.4134 88.3933L63.4058 88.1724L60.4134 88.3933ZM44.8838 98.1005L47.488 98.6841L44.8838 98.1005ZM45.202 97.8349L43.3931 96.5873L45.202 97.8349ZM63.884 105.985L62.0752 104.737L63.884 105.985ZM64.2022 105.719L66.8064 106.303L64.2022 105.719ZM16.0519 132.387L62.0752 104.737L65.6929 107.233L19.6696 134.882L16.0519 132.387ZM47.488 98.6841L18.6998 133.486L13.4914 132.318L42.2797 97.5168L47.488 98.6841ZM61.7488 90.2283L47.0108 99.0825L43.3931 96.5873L58.1311 87.7331L61.7488 90.2283ZM65.1201 76.9082L63.4058 88.1724L57.4209 88.6142L59.1352 77.3501L65.1201 76.9082ZM87.4288 71.6475L63.7156 78.0807L62.4123 74.6144L86.1255 68.1813L87.4288 71.6475ZM93.0341 71.433L91.8512 72.1436L88.2335 69.6484L89.4164 68.9377L93.0341 71.433ZM84.5509 77.3885L90.3862 70.3342L95.5946 71.5015L89.7593 78.5558L84.5509 77.3885ZM82.8641 86.0268L84.0073 78.5149L89.9922 78.073L88.849 85.5849L82.8641 86.0268ZM78.4779 86.4253L84.2686 84.8543L85.5719 88.3206L79.7812 89.8915L78.4779 86.4253ZM61.598 105.136L75.7443 88.0345L80.9527 89.2019L66.8064 106.303L61.598 105.136ZM79.7812 89.8915C80.275 89.7576 80.7 89.5073 80.9527 89.2019L75.7443 88.0345C76.334 87.3217 77.3258 86.7378 78.4779 86.4253L79.7812 89.8915ZM88.849 85.5849C88.6742 86.7335 87.3513 87.8378 85.5719 88.3206L84.2686 84.8543C83.506 85.0612 82.939 85.5345 82.8641 86.0268L88.849 85.5849ZM89.7593 78.5558C89.8881 78.4001 89.9675 78.2355 89.9922 78.073L84.0073 78.5149C84.065 78.1359 84.2504 77.7518 84.5509 77.3885L89.7593 78.5558ZM89.4164 68.9377C93.0774 66.7383 97.8847 68.7331 95.5946 71.5015L90.3862 70.3342C89.4048 71.5207 91.4651 72.3756 93.0341 71.433L89.4164 68.9377ZM91.1785 70.2781C91.3324 69.2672 89.5149 68.8786 88.2335 69.6484L91.8512 72.1436C88.9546 73.8838 84.8458 73.0052 85.1936 70.72L91.1785 70.2781ZM86.1255 68.1813C88.8909 67.4311 91.4502 68.4931 91.1785 70.2781L85.1936 70.72C85.0735 71.5096 86.2056 71.9794 87.4288 71.6475L86.1255 68.1813ZM59.1352 77.3501C59.31 76.2015 60.6329 75.0972 62.4123 74.6144L63.7156 78.0807C64.4783 77.8738 65.0452 77.4005 65.1201 76.9082L59.1352 77.3501ZM58.1311 87.7331C57.7271 87.9758 57.4695 88.2955 57.4209 88.6142L63.4058 88.1724C63.2927 88.9161 62.6915 89.662 61.7488 90.2283L58.1311 87.7331ZM42.2797 97.5168C42.5624 97.175 42.9411 96.8588 43.3931 96.5873L47.0108 99.0825C47.2046 98.9661 47.3669 98.8306 47.488 98.6841L42.2797 97.5168ZM62.0752 104.737C61.8815 104.854 61.7192 104.989 61.598 105.136L66.8064 106.303C66.5236 106.645 66.1449 106.961 65.6929 107.233L62.0752 104.737ZM19.6696 134.882C16.0085 137.082 11.2013 135.087 13.4914 132.318L18.6998 133.486C19.6812 132.299 17.621 131.444 16.0519 132.387L19.6696 134.882Z" fill="#E7EAE9" mask="url(#path-4-inside-1_2_478)"/>
    <mask id="path-6-inside-2_2_478" fill="white">
        <path fill-rule="evenodd" clip-rule="evenodd" d="M45.3332 44.884C45.2237 44.7915 45.1392 44.6879 45.0852 44.5797L26.5037 7.4148C26.0779 6.56312 27.5694 6.1421 28.4313 6.87069L66.0411 38.6643C66.1506 38.7569 66.2351 38.8605 66.2892 38.9687L72.2247 50.8403C72.3371 51.0651 72.5774 51.2645 72.8848 51.388L88.7174 57.7478C89.1919 57.9384 89.4864 58.2998 89.4419 58.637L87.4217 73.9426C87.3554 74.445 86.5769 74.6648 85.8697 74.3807V74.3807C84.9595 74.0151 84.0482 74.4886 84.381 75.1542L84.8706 76.1335C85.2964 76.9852 83.8049 77.4062 82.943 76.6776L75.2912 70.2092C75.1758 70.1115 75.0351 70.0285 74.8791 69.9659L64.3257 65.7266C63.8512 65.536 63.5567 65.1746 63.6012 64.8375L64.0915 61.1231C64.1203 60.9047 64.0066 60.6696 63.7791 60.4773L45.3332 44.884Z"/>
    </mask>
    <path d="M64.0915 61.1231L66.9719 61.6771L64.0915 61.1231ZM63.7791 60.4773L61.6796 61.5379L63.7791 60.4773ZM64.3257 65.7266L63.2565 67.3955L64.3257 65.7266ZM63.6012 64.8375L60.7208 64.2835L63.6012 64.8375ZM75.2912 70.2092L73.1918 71.2697L75.2912 70.2092ZM74.8791 69.9659L73.8099 71.6347L74.8791 69.9659ZM84.8706 76.1335L87.5901 75.8339L84.8706 76.1335ZM84.381 75.1542L87.1005 74.8546L84.381 75.1542ZM87.4217 73.9426L90.3022 74.4966L87.4217 73.9426ZM88.7174 57.7478L87.6482 59.4167L88.7174 57.7478ZM89.4419 58.637L86.5614 58.083L86.5614 58.083L89.4419 58.637ZM72.2247 50.8403L69.5052 51.14L72.2247 50.8403ZM72.8848 51.388L73.954 49.7191L72.8848 51.388ZM66.0411 38.6643L63.9417 39.7249L66.0411 38.6643ZM66.2892 38.9687L69.0087 38.669L66.2892 38.9687ZM45.0852 44.5797L47.8047 44.28L45.0852 44.5797ZM45.3332 44.884L43.2337 45.9446L45.3332 44.884ZM26.5037 7.4148L29.2232 7.11513L26.5037 7.4148ZM29.2232 7.11513L47.8047 44.28L42.3657 44.8793L23.7842 7.71447L29.2232 7.11513ZM63.9417 39.7249L26.3318 7.93128L30.5307 5.81009L68.1406 37.6037L63.9417 39.7249ZM69.5052 51.14L63.5697 39.2683L69.0087 38.669L74.9442 50.5406L69.5052 51.14ZM87.6482 59.4167L71.8156 53.0568L73.954 49.7191L89.7866 56.079L87.6482 59.4167ZM84.5413 73.3887L86.5614 58.083L92.3223 59.1909L90.3022 74.4966L84.5413 73.3887ZM82.1511 76.4332L81.6615 75.4539L87.1005 74.8546L87.5901 75.8339L82.1511 76.4332ZM77.3907 69.1486L85.0425 75.617L80.8436 77.7382L73.1918 71.2697L77.3907 69.1486ZM65.3949 64.0578L75.9483 68.297L73.8099 71.6347L63.2565 67.3955L65.3949 64.0578ZM66.9719 61.6771L66.4817 65.3914L60.7208 64.2835L61.211 60.5692L66.9719 61.6771ZM47.4326 43.8234L65.8785 59.4167L61.6796 61.5379L43.2337 45.9446L47.4326 43.8234ZM61.211 60.5692C61.1678 60.8968 61.3384 61.2494 61.6796 61.5379L65.8785 59.4167C66.6748 60.0899 67.0728 60.9127 66.9719 61.6771L61.211 60.5692ZM63.2565 67.3955C61.5957 66.7283 60.565 65.4635 60.7208 64.2835L66.4817 65.3914C66.5484 64.8858 66.1067 64.3437 65.3949 64.0578L63.2565 67.3955ZM73.1918 71.2697C73.365 71.4162 73.5759 71.5407 73.8099 71.6347L75.9483 68.297C76.4944 68.5164 76.9866 68.8069 77.3907 69.1486L73.1918 71.2697ZM87.5901 75.8339C89.0805 78.8147 83.8601 80.2883 80.8436 77.7382L85.0425 75.617C83.7497 74.5242 81.5124 75.1557 82.1511 76.4332L87.5901 75.8339ZM84.8005 76.0496C86.2068 76.6145 87.6147 75.8829 87.1005 74.8546L81.6615 75.4539C80.4817 73.0943 83.7123 71.4157 86.9389 72.7119L84.8005 76.0496ZM90.3022 74.4966C90.0671 76.2776 87.3074 77.0566 84.8005 76.0496L86.9389 72.7119C85.8464 72.273 84.6437 72.6125 84.5413 73.3887L90.3022 74.4966ZM89.7866 56.079C91.4474 56.7461 92.4781 58.011 92.3223 59.1909L86.5614 58.083C86.4947 58.5887 86.9364 59.1308 87.6482 59.4167L89.7866 56.079ZM74.9442 50.5406C74.7756 50.2034 74.4151 49.9043 73.954 49.7191L71.8156 53.0568C70.7396 52.6246 69.8986 51.9268 69.5052 51.14L74.9442 50.5406ZM68.1406 37.6037C68.5238 37.9277 68.8193 38.2903 69.0087 38.669L63.5697 39.2683C63.6508 39.4306 63.7775 39.5861 63.9417 39.7249L68.1406 37.6037ZM47.8047 44.28C47.7235 44.1177 47.5969 43.9623 47.4326 43.8234L43.2337 45.9446C42.8505 45.6207 42.555 45.258 42.3657 44.8793L47.8047 44.28ZM23.7842 7.71447C22.2939 4.73363 27.5141 3.26002 30.5307 5.81009L26.3318 7.93128C27.6247 9.02419 29.8619 8.39261 29.2232 7.11513L23.7842 7.71447Z" fill="#E7EAE9" mask="url(#path-6-inside-2_2_478)"/>
    <mask id="path-8-inside-3_2_478" fill="white">
        <path fill-rule="evenodd" clip-rule="evenodd" d="M144.917 65.238C144.981 65.2345 145.045 65.2372 145.108 65.2459L205.641 73.6184C206.832 73.7832 206.624 75.5298 205.406 75.5953L143.483 78.9281C143.418 78.9316 143.354 78.9289 143.291 78.9202L122.237 76.0081C122.097 75.9887 121.952 75.9995 121.812 76.0399L103.748 81.2402C103.529 81.3031 103.301 81.2937 103.1 81.2135L81.0392 72.4344C80.5621 72.2445 80.6451 71.5457 81.1624 71.3968V71.3968C81.7467 71.2286 81.747 70.4076 81.1628 70.3268L80.2456 70.2C79.3474 70.0757 79.5039 68.7586 80.4227 68.7091L92.6968 68.0485C92.7755 68.0443 92.8541 68.031 92.931 68.0088L105.084 64.5101C105.303 64.4472 105.531 64.4566 105.732 64.5368L111.756 66.9341C111.886 66.9855 112.027 67.0082 112.17 67.0005L144.917 65.238Z"/>
    </mask>
    <path d="M111.756 66.9341L112.845 64.619L111.756 66.9341ZM112.17 67.0005L112.116 69.4814L112.17 67.0005ZM105.084 64.5101L104.553 62.1284L105.084 64.5101ZM105.732 64.5368L106.821 62.2217L106.821 62.2217L105.732 64.5368ZM92.6968 68.0485L92.6424 70.5295L92.6968 68.0485ZM92.931 68.0088L92.4 65.6271L92.931 68.0088ZM80.2456 70.2L80.7783 67.7387L80.2456 70.2ZM80.4227 68.7091L80.3682 71.1901L80.4227 68.7091ZM81.1628 70.3268L81.6956 67.8655L81.1628 70.3268ZM81.0392 72.4344L79.9501 74.7494L81.0392 72.4344ZM103.748 81.2402L104.279 83.6219L103.748 81.2402ZM103.1 81.2135L104.189 78.8985L103.1 81.2135ZM122.237 76.0081L122.77 73.5468L122.237 76.0081ZM121.812 76.0399L122.343 78.4216L121.812 76.0399ZM143.483 78.9281L143.537 76.4471L143.483 78.9281ZM143.291 78.9202L143.824 76.4589L143.291 78.9202ZM145.108 65.2459L144.576 67.7072L145.108 65.2459ZM144.917 65.238L144.863 67.719L144.917 65.238ZM205.641 73.6184L205.108 76.0797L205.641 73.6184ZM205.406 75.5953L205.351 78.0763L205.406 75.5953ZM205.108 76.0797L144.576 67.7072L145.641 62.7846L206.173 71.1571L205.108 76.0797ZM143.537 76.4471L205.46 73.1144L205.351 78.0763L143.428 81.4091L143.537 76.4471ZM122.77 73.5468L143.824 76.4589L142.759 81.3815L121.705 78.4694L122.77 73.5468ZM103.217 78.8584L121.281 73.6582L122.343 78.4216L104.279 83.6219L103.217 78.8584ZM82.1282 70.1193L104.189 78.8985L102.011 83.5286L79.9501 74.7494L82.1282 70.1193ZM80.7783 67.7387L81.6956 67.8655L80.6301 72.7881L79.7128 72.6613L80.7783 67.7387ZM92.6424 70.5295L80.3682 71.1901L80.4771 66.2281L92.7513 65.5675L92.6424 70.5295ZM105.615 66.8919L93.462 70.3906L92.4 65.6271L104.553 62.1284L105.615 66.8919ZM110.667 69.2491L104.643 66.8519L106.821 62.2217L112.845 64.619L110.667 69.2491ZM144.863 67.719L112.116 69.4814L112.225 64.5195L144.971 62.757L144.863 67.719ZM112.845 64.619C112.651 64.5418 112.44 64.5079 112.225 64.5195L112.116 69.4814C111.614 69.5085 111.12 69.4293 110.667 69.2491L112.845 64.619ZM104.553 62.1284C105.318 61.9082 106.116 61.9411 106.821 62.2217L104.643 66.8519C104.946 66.9721 105.288 66.9862 105.615 66.8919L104.553 62.1284ZM92.7513 65.5675C92.6333 65.5739 92.5154 65.5939 92.4 65.6271L93.462 70.3906C93.1928 70.4681 92.9177 70.5147 92.6424 70.5295L92.7513 65.5675ZM79.7128 72.6613C75.8373 72.1252 76.5124 66.4415 80.4771 66.2281L80.3682 71.1901C80.7881 71.1675 81.257 70.9749 81.6218 70.6029C81.9547 70.2636 82.1102 69.87 82.1507 69.5293C82.1911 69.1886 82.1302 68.7861 81.8809 68.4228C81.6075 68.0246 81.1887 67.7954 80.7783 67.7387L79.7128 72.6613ZM80.6314 69.015C78.571 69.6082 78.57 72.5032 80.6301 72.7881L81.6956 67.8655C84.924 68.3121 84.9224 72.8489 81.6934 73.7785L80.6314 69.015ZM79.9501 74.7494C77.3137 73.7002 77.7725 69.8381 80.6314 69.015L81.6934 73.7785C83.5177 73.2533 83.8105 70.7888 82.1282 70.1193L79.9501 74.7494ZM104.279 83.6219C103.514 83.8421 102.716 83.8092 102.011 83.5286L104.189 78.8985C103.887 78.7782 103.545 78.7641 103.217 78.8584L104.279 83.6219ZM121.705 78.4694C121.915 78.4985 122.132 78.4822 122.343 78.4216L121.281 73.6582C121.772 73.5169 122.279 73.4789 122.77 73.5468L121.705 78.4694ZM143.428 81.4091C143.203 81.4212 142.979 81.412 142.759 81.3815L143.824 76.4589C143.73 76.4459 143.634 76.4419 143.537 76.4471L143.428 81.4091ZM144.576 67.7072C144.67 67.7202 144.766 67.7242 144.863 67.719L144.971 62.757C145.197 62.7449 145.421 62.7541 145.641 62.7846L144.576 67.7072ZM206.173 71.1571C210.342 71.7337 209.616 77.8468 205.351 78.0763L205.46 73.1144C205.115 73.1329 204.706 73.2957 204.383 73.6245C204.093 73.9207 203.962 74.2578 203.929 74.5413C203.895 74.8248 203.944 75.1693 204.162 75.4864C204.404 75.8384 204.771 76.0331 205.108 76.0797L206.173 71.1571Z" fill="#E7EAE9" mask="url(#path-8-inside-3_2_478)"/>
    <path d="M103.561 72.3309C103.561 74.8025 101.85 77.2656 98.5988 79.1793C95.3761 81.0761 90.8421 82.2895 85.7667 82.2895C80.6913 82.2895 76.1573 81.0761 72.9346 79.1793C69.6832 77.2656 67.9727 74.8025 67.9727 72.3309C67.9727 69.8593 69.6832 67.3962 72.9346 65.4824C76.1573 63.5857 80.6913 62.3723 85.7667 62.3723C90.8421 62.3723 95.3761 63.5857 98.5988 65.4824C101.85 67.3962 103.561 69.8593 103.561 72.3309Z" fill="#07080A" stroke="#E7EAE9" stroke-width="2.5"/>
    <ellipse cx="0.617503" cy="0.398642" rx="0.617503" ry="0.398642" transform="matrix(0.986056 0.166415 -0.437979 0.898985 81.5863 68.0127)" fill="#E7EAE9"/>
    <ellipse cx="0.617503" cy="0.398642" rx="0.617503" ry="0.398642" transform="matrix(0.986056 0.166415 -0.437979 0.898985 81.2372 68.7294)" fill="#E7EAE9"/>
    <ellipse cx="0.617503" cy="0.398642" rx="0.617503" ry="0.398642" transform="matrix(0.986056 0.166415 -0.437979 0.898985 80.8881 69.4462)" fill="#E7EAE9"/>
    <ellipse cx="0.617503" cy="0.398642" rx="0.617503" ry="0.398642" transform="matrix(0.986056 0.166415 -0.437979 0.898985 80.539 70.163)" fill="#E7EAE9"/>
    <ellipse cx="0.617503" cy="0.398642" rx="0.617503" ry="0.398642" transform="matrix(0.986056 0.166415 -0.437979 0.898985 80.1899 70.8797)" fill="#E7EAE9"/>
    <ellipse cx="0.617503" cy="0.398642" rx="0.617503" ry="0.398642" transform="matrix(0.986056 0.166415 -0.437979 0.898985 79.8404 71.5965)" fill="#E7EAE9"/>
    <ellipse cx="0.617503" cy="0.398642" rx="0.617503" ry="0.398642" transform="matrix(0.986056 0.166415 -0.437979 0.898985 82.8032 68.218)" fill="#E7EAE9"/>
    <ellipse cx="0.617503" cy="0.398642" rx="0.617503" ry="0.398642" transform="matrix(0.986056 0.166415 -0.437979 0.898985 82.4541 68.9347)" fill="#E7EAE9"/>
    <ellipse cx="0.617503" cy="0.398642" rx="0.617503" ry="0.398642" transform="matrix(0.986056 0.166415 -0.437979 0.898985 84.0208 68.4236)" fill="#E7EAE9"/>
    <ellipse cx="0.617503" cy="0.398642" rx="0.617503" ry="0.398642" transform="matrix(0.986056 0.166415 -0.437979 0.898985 83.3226 69.8571)" fill="#E7EAE9"/>
    <ellipse cx="0.617503" cy="0.398642" rx="0.617503" ry="0.398642" transform="matrix(0.986056 0.166415 -0.437979 0.898985 85.2388 68.6291)" fill="#E7EAE9"/>
    <ellipse cx="0.617503" cy="0.398642" rx="0.617503" ry="0.398642" transform="matrix(0.986056 0.166415 -0.437979 0.898985 84.1905 70.7794)" fill="#E7EAE9"/>
    <ellipse cx="0.617503" cy="0.398642" rx="0.617503" ry="0.398642" transform="matrix(0.986056 0.166415 -0.437979 0.898985 86.4564 68.8346)" fill="#E7EAE9"/>
    <ellipse cx="0.617503" cy="0.398642" rx="0.617503" ry="0.398642" transform="matrix(0.986056 0.166415 -0.437979 0.898985 85.0598 71.7016)" fill="#E7EAE9"/>
    <ellipse cx="0.617503" cy="0.398642" rx="0.617503" ry="0.398642" transform="matrix(0.986056 0.166415 -0.437979 0.898985 87.6752 69.0403)" fill="#E7EAE9"/>
    <ellipse cx="0.617503" cy="0.398642" rx="0.617503" ry="0.398642" transform="matrix(0.986056 0.166415 -0.437979 0.898985 85.9291 72.6241)" fill="#E7EAE9"/>
    <ellipse cx="0.617503" cy="0.398642" rx="0.617503" ry="0.398642" transform="matrix(0.986056 0.166415 -0.437979 0.898985 86.7967 73.5462)" fill="#E7EAE9"/>
    <ellipse cx="0.617503" cy="0.398642" rx="0.617503" ry="0.398642" transform="matrix(0.986056 0.166415 -0.437979 0.898985 87.6652 74.4685)" fill="#E7EAE9"/>
</svg>
